<svg xmlns="http://www.w3.org/2000/svg" version="1.1" viewBox="44.01 318.1 660.65 99.89"><path d="M 80.721 319.567 C 58.185 325.027, 44.066 343.926, 44.015 368.701 C 43.965 393.144, 57.537 411.868, 78.721 416.581 C 92.857 419.726, 106.661 416.706, 115.830 408.463 L 120.757 404.033 121.378 407.142 C 121.720 408.851, 122 411.319, 122 412.625 C 122 414.939, 122.219 415, 130.500 415 L 139 415 139 389.500 L 139 364 116.500 364 L 94 364 94 373 L 94 382 105.107 382 C 114.824 382, 116.138 382.198, 115.607 383.582 C 115.273 384.452, 115 385.561, 115 386.047 C 115 387.967, 108.294 394.415, 104.509 396.135 C 99.204 398.545, 89.775 398.535, 84.444 396.114 C 78.885 393.589, 73.269 386.732, 71.348 380.125 C 69.130 372.495, 69.890 359.250, 72.947 352.258 C 75.348 346.768, 81.248 340.617, 85.757 338.902 C 87.216 338.348, 91.065 337.881, 94.309 337.866 C 102.021 337.829, 108.692 341.099, 111.500 346.294 L 113.500 349.995 125.817 349.997 C 139.935 350, 139.179 350.916, 134.267 339.766 C 131.467 333.409, 124.740 326.439, 118.174 323.089 C 108.652 318.231, 92.503 316.712, 80.721 319.567 M 652 319.012 C 649.525 319.439, 645.151 320.688, 642.279 321.787 C 623.734 328.886, 617.445 349.646, 629.554 363.792 C 634.259 369.288, 645.411 374.657, 662.407 379.606 C 669.656 381.718, 676.413 384.312, 677.823 385.524 C 680.857 388.134, 681.182 393.036, 678.517 395.981 C 674.680 400.221, 661.597 401.362, 654.383 398.086 C 649.504 395.871, 647.171 392.871, 646.348 387.750 L 645.744 384 633.397 384 L 621.050 384 621.608 387.250 C 625.269 408.577, 637.978 418.039, 662.886 417.983 C 681.894 417.939, 696.507 411.491, 702.292 400.595 C 705.569 394.422, 705.423 382.144, 702 376.047 C 698.013 368.944, 693.086 365.977, 675.435 360.049 C 652.331 352.289, 648 349.900, 648 344.916 C 648 339.613, 652.632 336.875, 661.602 336.875 C 670.835 336.875, 675.159 339.712, 677.414 347.250 C 677.875 348.792, 679.380 349, 690.057 349 L 702.176 349 701.476 344.750 C 700.415 338.304, 698.566 334.570, 693.969 329.582 C 685.384 320.269, 668.847 316.104, 652 319.012 M 157 367.936 L 157 415 169.500 415 L 182 415 182 397.500 L 182 380 192.351 380 C 210.371 380, 211.903 381.437, 213.076 399.436 C 213.508 406.071, 214.166 412.288, 214.538 413.250 C 215.135 414.796, 216.776 415, 228.607 415 C 237.172 415, 242 414.627, 242 413.965 C 242 413.395, 241.287 411.841, 240.414 410.510 C 239.412 408.980, 238.497 404.118, 237.926 397.295 C 236.360 378.589, 235.449 376.068, 228.788 372.017 L 225.899 370.260 230.811 366.731 C 237.454 361.959, 240.489 355.748, 240.455 347 C 240.442 343.425, 239.868 338.872, 239.181 336.883 C 237.419 331.778, 231.651 326.413, 225.098 323.785 C 219.788 321.654, 217.892 321.522, 188.250 321.205 L 157 320.871 157 367.936 M 258 368 L 258 415 296.500 415 L 335 415 335 405.500 L 335 396 309 396 L 283 396 283 386 L 283 376 306 376 L 329 376 329 366.500 L 329 357 306 357 L 283 357 283 348.500 L 283 340 308 340 L 333 340 333 330.500 L 333 321 295.500 321 L 258 321 258 368 M 379.657 321.750 C 379.058 322.723, 345.881 410.948, 345.248 413.250 C 344.807 414.852, 345.873 415, 357.851 415 L 370.936 415 373.536 406.476 L 376.136 397.952 392.756 398.226 L 409.376 398.500 412.325 406.750 L 415.273 415 428.637 415 C 435.987 415, 442 414.742, 442 414.426 C 442 414.111, 434.744 394.198, 425.876 370.176 C 417.008 346.154, 409.314 325.262, 408.779 323.750 L 407.804 321 393.961 321 C 386.347 321, 379.910 321.337, 379.657 321.750 M 432.221 322.250 C 432.460 322.938, 440.044 344.087, 449.075 369.250 L 465.494 415 477.504 415 L 489.513 415 506.007 369.366 C 515.078 344.267, 522.648 323.104, 522.829 322.336 C 523.100 321.185, 520.833 320.990, 509.892 321.220 L 496.626 321.500 487.309 353.500 C 482.184 371.100, 477.867 385.878, 477.716 386.340 C 477.564 386.801, 473.204 372.289, 468.026 354.090 L 458.611 321 445.198 321 C 434.903 321, 431.887 321.291, 432.221 322.250 M 534 368 L 534 415 572.500 415 L 611 415 611 405.500 L 611 396 585.500 396 L 560 396 560 386 L 560 376 582.500 376 L 605 376 605 366.500 L 605 357 582.500 357 L 560 357 560 348.500 L 560 340 584.500 340 L 609 340 609 330.500 L 609 321 571.500 321 L 534 321 534 368 M 182 350.424 L 182 361 194.852 361 C 206.527 361, 208.009 360.794, 211.033 358.750 C 216.644 354.958, 217.273 347.487, 212.371 342.876 C 210.003 340.648, 208.975 340.480, 195.923 340.174 L 182 339.849 182 350.424 M 387.681 361.843 C 385.106 370.027, 383 377.011, 383 377.362 C 383 377.713, 387.707 378, 393.461 378 L 403.922 378 398.804 363.250 C 395.989 355.137, 393.388 348.154, 393.024 347.731 C 392.660 347.308, 390.255 353.658, 387.681 361.843" stroke="none" fill="#0554a4" fill-rule="evenodd"/><path d="M -0 370.001 L -0 740.003 370.250 739.751 L 740.500 739.500 740.751 369.750 L 741.003 -0 370.501 -0 L 0 0 -0 370.001 M 0.495 370.500 C 0.495 574, 0.610 657.399, 0.750 555.831 C 0.890 454.264, 0.890 287.764, 0.750 185.831 C 0.610 83.899, 0.495 167, 0.495 370.500 M 80.721 319.567 C 58.185 325.027, 44.066 343.926, 44.015 368.701 C 43.965 393.144, 57.537 411.868, 78.721 416.581 C 92.857 419.726, 106.661 416.706, 115.830 408.463 L 120.757 404.033 121.378 407.142 C 121.720 408.851, 122 411.319, 122 412.625 C 122 414.939, 122.219 415, 130.500 415 L 139 415 139 389.500 L 139 364 116.500 364 L 94 364 94 373 L 94 382 105.107 382 C 114.824 382, 116.138 382.198, 115.607 383.582 C 115.273 384.452, 115 385.561, 115 386.047 C 115 387.967, 108.294 394.415, 104.509 396.135 C 99.204 398.545, 89.775 398.535, 84.444 396.114 C 78.885 393.589, 73.269 386.732, 71.348 380.125 C 69.130 372.495, 69.890 359.250, 72.947 352.258 C 75.348 346.768, 81.248 340.617, 85.757 338.902 C 87.216 338.348, 91.065 337.881, 94.309 337.866 C 102.021 337.829, 108.692 341.099, 111.500 346.294 L 113.500 349.995 125.817 349.997 C 139.935 350, 139.179 350.916, 134.267 339.766 C 131.467 333.409, 124.740 326.439, 118.174 323.089 C 108.652 318.231, 92.503 316.712, 80.721 319.567 M 652 319.012 C 649.525 319.439, 645.151 320.688, 642.279 321.787 C 623.734 328.886, 617.445 349.646, 629.554 363.792 C 634.259 369.288, 645.411 374.657, 662.407 379.606 C 669.656 381.718, 676.413 384.312, 677.823 385.524 C 680.857 388.134, 681.182 393.036, 678.517 395.981 C 674.680 400.221, 661.597 401.362, 654.383 398.086 C 649.504 395.871, 647.171 392.871, 646.348 387.750 L 645.744 384 633.397 384 L 621.050 384 621.608 387.250 C 625.269 408.577, 637.978 418.039, 662.886 417.983 C 681.894 417.939, 696.507 411.491, 702.292 400.595 C 705.569 394.422, 705.423 382.144, 702 376.047 C 698.013 368.944, 693.086 365.977, 675.435 360.049 C 652.331 352.289, 648 349.900, 648 344.916 C 648 339.613, 652.632 336.875, 661.602 336.875 C 670.835 336.875, 675.159 339.712, 677.414 347.250 C 677.875 348.792, 679.380 349, 690.057 349 L 702.176 349 701.476 344.750 C 700.415 338.304, 698.566 334.570, 693.969 329.582 C 685.384 320.269, 668.847 316.104, 652 319.012 M 157 367.936 L 157 415 169.500 415 L 182 415 182 397.500 L 182 380 192.351 380 C 210.371 380, 211.903 381.437, 213.076 399.436 C 213.508 406.071, 214.166 412.288, 214.538 413.250 C 215.135 414.796, 216.776 415, 228.607 415 C 237.172 415, 242 414.627, 242 413.965 C 242 413.395, 241.287 411.841, 240.414 410.510 C 239.412 408.980, 238.497 404.118, 237.926 397.295 C 236.360 378.589, 235.449 376.068, 228.788 372.017 L 225.899 370.260 230.811 366.731 C 237.454 361.959, 240.489 355.748, 240.455 347 C 240.442 343.425, 239.868 338.872, 239.181 336.883 C 237.419 331.778, 231.651 326.413, 225.098 323.785 C 219.788 321.654, 217.892 321.522, 188.250 321.205 L 157 320.871 157 367.936 M 258 368 L 258 415 296.500 415 L 335 415 335 405.500 L 335 396 309 396 L 283 396 283 386 L 283 376 306 376 L 329 376 329 366.500 L 329 357 306 357 L 283 357 283 348.500 L 283 340 308 340 L 333 340 333 330.500 L 333 321 295.500 321 L 258 321 258 368 M 379.657 321.750 C 379.058 322.723, 345.881 410.948, 345.248 413.250 C 344.807 414.852, 345.873 415, 357.851 415 L 370.936 415 373.536 406.476 L 376.136 397.952 392.756 398.226 L 409.376 398.500 412.325 406.750 L 415.273 415 428.637 415 C 435.987 415, 442 414.742, 442 414.426 C 442 414.111, 434.744 394.198, 425.876 370.176 C 417.008 346.154, 409.314 325.262, 408.779 323.750 L 407.804 321 393.961 321 C 386.347 321, 379.910 321.337, 379.657 321.750 M 432.221 322.250 C 432.460 322.938, 440.044 344.087, 449.075 369.250 L 465.494 415 477.504 415 L 489.513 415 506.007 369.366 C 515.078 344.267, 522.648 323.104, 522.829 322.336 C 523.100 321.185, 520.833 320.990, 509.892 321.220 L 496.626 321.500 487.309 353.500 C 482.184 371.100, 477.867 385.878, 477.716 386.340 C 477.564 386.801, 473.204 372.289, 468.026 354.090 L 458.611 321 445.198 321 C 434.903 321, 431.887 321.291, 432.221 322.250 M 534 368 L 534 415 572.500 415 L 611 415 611 405.500 L 611 396 585.500 396 L 560 396 560 386 L 560 376 582.500 376 L 605 376 605 366.500 L 605 357 582.500 357 L 560 357 560 348.500 L 560 340 584.500 340 L 609 340 609 330.500 L 609 321 571.500 321 L 534 321 534 368 M 182 350.424 L 182 361 194.852 361 C 206.527 361, 208.009 360.794, 211.033 358.750 C 216.644 354.958, 217.273 347.487, 212.371 342.876 C 210.003 340.648, 208.975 340.480, 195.923 340.174 L 182 339.849 182 350.424 M 387.681 361.843 C 385.106 370.027, 383 377.011, 383 377.362 C 383 377.713, 387.707 378, 393.461 378 L 403.922 378 398.804 363.250 C 395.989 355.137, 393.388 348.154, 393.024 347.731 C 392.660 347.308, 390.255 353.658, 387.681 361.843" stroke="none" fill="none" fill-rule="evenodd"/></svg>