<svg id="HUH_logo" data-name="HUH logo" xmlns="http://www.w3.org/2000/svg" viewBox="0 0 283.46 47.01">
<defs>
    <style>
        .cls-1{fill:#00286e;}
        .cls-2{fill:#4082d2;}
    </style>
</defs>
<path class="cls-1" d="M36.78,1.32V46H28.43V26.8H8.35V46H0V1.32H8.35V19.58H28.43V1.32Z"/>
<path class="cls-1" d="M54.53,47A31.54,31.54,0,0,1,48,46.42a12.12,12.12,0,0,1-4.65-2A8,8,0,0,1,40.59,41a14.3,14.3,0,0,1-.88-5.37V13.37h8.16V34.52A14.1,14.1,0,0,0,48.06,37a3.49,3.49,0,0,0,.85,1.79,4.18,4.18,0,0,0,2,1.1,13.91,13.91,0,0,0,3.61.38,13.53,13.53,0,0,0,3.57-.38,4.17,4.17,0,0,0,2-1.1A3.49,3.49,0,0,0,60.93,37a15.11,15.11,0,0,0,.19-2.51V13.37h8.16V35.59q0,6.34-3.61,8.88T54.53,47Z"/>
<path class="cls-1" d="M72.2,46V1.32h8.16V14.94a9.51,9.51,0,0,1,3.14-1.79,17.22,17.22,0,0,1,5.84-.78c3.89,0,7,.82,9.26,2.48S102,19.27,102,23.16V46H93.86V24.79a14.26,14.26,0,0,0-.19-2.51,3.48,3.48,0,0,0-.85-1.79,3.86,3.86,0,0,0-1.91-1.06,13.28,13.28,0,0,0-3.39-.35,14,14,0,0,0-3.58.38,4.47,4.47,0,0,0-2.16,1.22,4.75,4.75,0,0,0-1.1,2.26,15.9,15.9,0,0,0-.32,3.42V46Z"/>
<path class="cls-2" d="M160,46V23.66a14,14,0,0,1,.88-5.3,8.17,8.17,0,0,1,2.6-3.48A11.18,11.18,0,0,1,167.68,13a25,25,0,0,1,5.78-.59,17.52,17.52,0,0,1,6,.94A9,9,0,0,1,183.5,16a9,9,0,0,1,4.08-2.7,18,18,0,0,1,6.09-.94,24.69,24.69,0,0,1,5.71.59,11.18,11.18,0,0,1,4.24,1.92,8.09,8.09,0,0,1,2.6,3.48,14,14,0,0,1,.88,5.3V46h-8.16V24.79a16.81,16.81,0,0,0-.16-2.51,3.69,3.69,0,0,0-.72-1.79,3.28,3.28,0,0,0-1.72-1.06,11.33,11.33,0,0,0-3.11-.35,10.53,10.53,0,0,0-2.89.32,3.83,3.83,0,0,0-1.69.94,3,3,0,0,0-.82,1.57,10.89,10.89,0,0,0-.19,2.19V46h-8.16V24.79a18.4,18.4,0,0,0-.15-2.51,3.63,3.63,0,0,0-.76-1.79,3.49,3.49,0,0,0-1.72-1.06,13.73,13.73,0,0,0-6.16,0A3.31,3.31,0,0,0,169,20.49a3.69,3.69,0,0,0-.72,1.79,16.81,16.81,0,0,0-.16,2.51V46Z"/>
<path class="cls-2" d="M250.1,25.74l12.37-12.37h9.85l-15,14.56L273.77,46H263.6L250.1,31V46h-8.16V1.32h8.16Z"/>
<path class="cls-2" d="M283.46,5.08a3.91,3.91,0,0,1-.9,2.89,6.23,6.23,0,0,1-6.35,0,3.87,3.87,0,0,1-.9-2.89,3.87,3.87,0,0,1,.9-2.86,6.05,6.05,0,0,1,6.35,0A3.91,3.91,0,0,1,283.46,5.08Z"/>
<rect class="cls-2" x="275.31" y="13.37" width="8.16" height="32.64"/>
<path class="cls-1" d="M120.36,39.29a14.31,14.31,0,0,1-2.79-.22,3,3,0,0,1-1.7-.87,3.64,3.64,0,0,1-.81-1.86,17.13,17.13,0,0,1-.22-3.07V20.09H123l1.32-6.72h-9.47V0l-8.16,1.32v12h-3v6.72h3V33.71a26.85,26.85,0,0,0,.56,6,7.55,7.55,0,0,0,2,3.8,8.28,8.28,0,0,0,4,2,31.25,31.25,0,0,0,6.5.56h5.08l1.32-6.72Z"/>
<path class="cls-1" d="M149.12,26.74V25.4c-.21-4.38-1.45-5.31-7.57-5.31H129.74l1.32-6.72h11.16q7.65,0,11.23,2.7T157,24.54V40.11q0,3.33-1.5,4.61T150.32,46H140.08q-6.71,0-9.51-2.51t-2.79-7.22V34.9q0-5.2,3.08-7.56t9.6-2.36a22.87,22.87,0,0,1,5.43.54,10.87,10.87,0,0,1,3.23,1.22Zm0,8.29a7.09,7.09,0,0,0-.22-1.92,2.34,2.34,0,0,0-.91-1.29,4.8,4.8,0,0,0-1.94-.72,20.91,20.91,0,0,0-3.33-.22h-.94c-2.39,0-4,.3-4.83.88a3.64,3.64,0,0,0-1.26,3.2v1.2a3.68,3.68,0,0,0,1.16,3c.78.65,2.21,1,4.3,1h8Z"/>
<path class="cls-2" d="M231.11,26.74V25.4c-.22-4.38-1.46-5.31-7.58-5.31h-11.8l1.32-6.72H224.2q7.67,0,11.24,2.7T239,24.54V40.11c0,2.22-.51,3.76-1.51,4.61S234.77,46,232.3,46H222.07q-6.72,0-9.51-2.51t-2.79-7.22V34.9q0-5.2,3.07-7.56T222.45,25a23,23,0,0,1,5.43.54,10.87,10.87,0,0,1,3.23,1.22Zm0,8.29a7.51,7.51,0,0,0-.22-1.92,2.39,2.39,0,0,0-.91-1.29A4.8,4.8,0,0,0,228,31.1a20.77,20.77,0,0,0-3.32-.22h-1c-2.38,0-4,.3-4.83.88a3.64,3.64,0,0,0-1.25,3.2v1.2a3.65,3.65,0,0,0,1.16,3c.77.65,2.2,1,4.3,1h8Z"/>
</svg>